<svg width="174" height="48" viewBox="0 0 174 48" fill="none" xmlns="http://www.w3.org/2000/svg">
<path d="M173.692 35.0297C173.915 36.1116 173.219 37.1692 172.137 37.3919L154.507 41.0216C153.425 41.2443 152.367 40.5478 152.144 39.4659C151.922 38.3841 152.618 37.3265 153.7 37.1037L169.371 33.8774L166.145 18.206C165.922 17.1242 166.619 16.0666 167.701 15.8438C168.782 15.6211 169.84 16.3176 170.063 17.3994L173.692 35.0297ZM2.32031 45.6641L0.985732 44.1745C33.9381 14.6513 60.0964 0.742349 86.6371 0.0405578C113.123 -0.659773 139.509 11.8167 172.833 33.7626L171.733 35.433L170.633 37.1033C137.38 15.2044 111.899 3.37398 86.7428 4.03916C61.6415 4.70289 36.3825 17.8319 3.65489 47.1537L2.32031 45.6641Z" fill="#EBEBEB"/>
</svg>
