<svg width="201" height="65" viewBox="0 0 201 65" fill="none" xmlns="http://www.w3.org/2000/svg">
<path d="M200.696 2.19826C200.682 1.09377 199.776 0.209211 198.672 0.222539L180.673 0.439738C179.568 0.453066 178.684 1.35924 178.697 2.46373C178.711 3.56821 179.617 4.45278 180.721 4.43945L196.72 4.24638L196.913 20.2452C196.926 21.3497 197.833 22.2343 198.937 22.2209C200.042 22.2076 200.926 21.3014 200.913 20.197L200.696 2.19826ZM1.38281 18.7031L0.157957 20.2842C43.5012 53.8625 76.1769 67.8003 106.915 64.0144C137.58 60.2374 165.712 38.8749 200.127 3.61944L198.696 2.22239L197.265 0.825348C162.862 36.0686 135.587 56.4527 106.426 60.0444C77.3366 63.6273 45.7646 50.5561 2.60767 17.1221L1.38281 18.7031Z" fill="#EBEBEB"/>
</svg>
