<svg width="34" height="33" viewBox="0 0 34 33" fill="none" xmlns="http://www.w3.org/2000/svg">
<rect y="0.921875" width="34" height="32" rx="6" fill="#DE5EA3"/>
<path d="M14 6.92188V8.92188H20V6.92188H22V8.92188H26C26.5523 8.92188 27 9.3696 27 9.92188V25.9219C27 26.4742 26.5523 26.9219 26 26.9219H8C7.44772 26.9219 7 26.4742 7 25.9219V9.92188C7 9.3696 7.44772 8.92188 8 8.92188H12V6.92188H14ZM25 16.9219H9V24.9219H25V16.9219ZM13 18.9219V20.9219H11V18.9219H13ZM18 18.9219V20.9219H16V18.9219H18ZM23 18.9219V20.9219H21V18.9219H23ZM12 10.9219H9V14.9219H25V10.9219H22V12.9219H20V10.9219H14V12.9219H12V10.9219Z" fill="white"/>
</svg>
