<svg width="24" height="25" viewBox="0 0 24 25" fill="none" xmlns="http://www.w3.org/2000/svg">
<path d="M4 12.9219C4 8.50359 7.58172 4.92188 12 4.92188C16.4183 4.92188 20 8.50359 20 12.9219C20 17.3402 16.4183 20.9219 12 20.9219C7.58172 20.9219 4 17.3402 4 12.9219ZM12 2.92188C6.47715 2.92188 2 7.39902 2 12.9219C2 18.4447 6.47715 22.9219 12 22.9219C17.5228 22.9219 22 18.4447 22 12.9219C22 7.39902 17.5228 2.92188 12 2.92188ZM17.4571 10.379L16.0429 8.96476L11 14.0077L8.20711 11.2148L6.79289 12.629L11 16.8361L17.4571 10.379Z" fill="#5F6572"/>
</svg>
