<svg width="40" height="41" viewBox="0 0 40 41" fill="none" xmlns="http://www.w3.org/2000/svg">
<path d="M35.7817 12C37.1817 14.5617 37.9783 17.5 37.9783 20.625C37.9783 27.2567 34.385 33.0517 29.04 36.1667L34.5317 20.2883C35.5567 17.7217 35.8983 15.67 35.8983 13.8483C35.8983 13.1733 35.855 12.55 35.7817 12ZM22.48 12.1733C23.5583 12.1233 24.5333 11.9983 24.5333 11.9983C25.5033 11.8733 25.39 10.4483 24.4217 10.5C24.4217 10.5 21.4967 10.725 19.6217 10.725C17.8483 10.725 14.8717 10.475 14.8717 10.475C13.8967 10.425 13.77 11.9 14.7467 11.95C14.7467 11.95 15.6467 12.0517 16.6217 12.1L19.4217 19.775L15.4717 31.575L8.92333 12.125C10.005 12.075 10.98 11.9583 10.98 11.9583C11.955 11.8333 11.84 10.4083 10.8717 10.465C10.8717 10.465 7.96167 10.695 6.08167 10.695C5.74833 10.695 5.35167 10.6817 4.93167 10.67C8.185 5.875 13.725 2.65 20 2.65C24.6817 2.65 28.9417 4.43667 32.1433 7.37167C32.0667 7.36667 31.9917 7.35667 31.9083 7.35667C30.1417 7.35667 28.8883 8.895 28.8883 10.5467C28.8883 12.03 29.7433 13.285 30.655 14.765C31.34 15.965 32.1383 17.5033 32.1383 19.7267C32.1383 21.2517 31.5483 23.05 30.77 25.525L28.9783 31.5L22.4783 12.15L22.48 12.1733ZM20 38.5983C18.235 38.5983 16.5317 38.3433 14.92 37.87L20.315 22.1933L25.84 37.3383C25.88 37.4267 25.9233 37.5067 25.97 37.5867C24.1033 38.2417 22.095 38.6017 20 38.6017M2.01833 20.625C2.01833 18.0183 2.57833 15.5417 3.57667 13.3083L12.15 36.8067C6.15667 33.8917 2.02 27.7433 2.01833 20.625ZM20 0.625C8.975 0.625 0 9.6 0 20.625C0 31.65 8.975 40.625 20 40.625C31.025 40.625 40 31.65 40 20.625C40 9.6 31.025 0.625 20 0.625Z" fill="#3A60DC"/>
</svg>
