<svg width="41" height="41" viewBox="0 0 41 41" fill="none" xmlns="http://www.w3.org/2000/svg">
<path d="M8.38229 7.63792C9.62562 8.64792 10.0923 8.57125 12.429 8.41459L34.454 7.09292C34.9206 7.09292 34.5323 6.62625 34.3773 6.54959L30.7173 3.90459C30.0173 3.36125 29.0823 2.73792 27.2923 2.89292L5.96729 4.44959C5.19062 4.52625 5.03396 4.91625 5.34396 5.22625L8.38229 7.63792ZM9.70396 12.7713V35.9446C9.70396 37.1896 10.3256 37.6563 11.7273 37.5779L35.9323 36.1779C37.334 36.1013 37.4906 35.2446 37.4906 34.2329V11.2146C37.4906 10.2046 37.1023 9.65959 36.244 9.73625L10.949 11.2146C10.0156 11.2929 9.70396 11.7613 9.70396 12.7713ZM33.599 14.0129C33.754 14.7129 33.599 15.4129 32.899 15.4929L31.7323 15.7263V32.8329C30.719 33.3779 29.7856 33.6896 29.0073 33.6896C27.7606 33.6896 27.449 33.2996 26.5156 32.1346L18.8873 20.1579V31.7446L21.3006 32.2913C21.3006 32.2913 21.3006 33.6913 19.354 33.6913L13.984 34.0013C13.829 33.6912 13.984 32.9129 14.529 32.7579L15.929 32.3696V17.0479L13.9873 16.8913C13.8306 16.1913 14.2206 15.1813 15.309 15.1029L21.069 14.7146L29.009 26.8463V16.1129L26.984 15.8813C26.829 15.0246 27.4506 14.4029 28.229 14.3263L33.599 14.0129ZM4.17729 2.34959L26.3606 0.716253C29.084 0.48292 29.7856 0.63792 31.4973 1.88292L38.579 6.85959C39.7456 7.71459 40.1356 7.94792 40.1356 8.88125V36.1779C40.1356 37.8879 39.514 38.9013 37.3356 39.0546L11.5723 40.6113C9.93896 40.6896 9.15896 40.4563 8.30229 39.3663L3.08729 32.5996C2.15396 31.3546 1.76562 30.4229 1.76562 29.3329V5.06959C1.76562 3.67125 2.38896 2.50292 4.17729 2.34959Z" fill="#EFE2E2"/>
</svg>
