<svg width="41" height="41" viewBox="0 0 41 41" fill="none" xmlns="http://www.w3.org/2000/svg">
<path d="M15.1996 40.1109V26.8109H11.0762V20.6992H15.1996V18.0659C15.1996 11.2576 18.2796 8.10255 24.9629 8.10255C25.6312 8.10255 26.5546 8.17255 27.4096 8.27422C28.05 8.34012 28.6853 8.44869 29.3113 8.59922V14.1409C28.9494 14.1071 28.5863 14.0871 28.2229 14.0809C27.8158 14.0703 27.4085 14.0653 27.0012 14.0659C25.8229 14.0659 24.9029 14.2259 24.2096 14.5809C23.7435 14.8147 23.3516 15.1737 23.0779 15.6176C22.6479 16.3176 22.4546 17.2759 22.4546 18.5375V20.6992H28.9862L28.3429 24.2042L27.8646 26.8109H22.4546V40.5525C32.3579 39.3559 40.0312 30.9242 40.0312 20.6992C40.0312 9.65422 31.0762 0.699219 20.0312 0.699219C8.98625 0.699219 0.03125 9.65422 0.03125 20.6992C0.03125 30.0792 6.48792 37.9492 15.1996 40.1109Z" fill="#2563EB"/>
</svg>
