<svg width="36" height="36" viewBox="0 0 36 36" fill="none" xmlns="http://www.w3.org/2000/svg">
<path d="M22.8134 35.0944L33.3367 32.8179C33.3367 32.8179 29.5392 7.13229 29.5086 6.96167C29.4823 6.7925 29.3423 6.68167 29.2009 6.68167C29.0594 6.68167 26.3878 6.48333 26.3878 6.48333C26.3878 6.48333 24.5284 4.62542 24.2892 4.42562C24.2236 4.37167 24.1798 4.3425 24.1128 4.31771L22.7798 35.0944H22.8134ZM17.524 16.6115C17.524 16.6115 16.3428 15.9931 14.9369 15.9931C12.8267 15.9931 12.7436 17.3144 12.7436 17.6571C12.7436 19.4538 17.4686 20.1581 17.4686 24.4077C17.4686 27.7546 15.3686 29.891 12.5015 29.891C9.06859 29.891 7.33901 27.7546 7.33901 27.7546L8.28109 24.7125C8.28109 24.7125 10.0967 26.2671 11.6061 26.2671C12.5905 26.2671 13.028 25.4723 13.028 24.9079C13.028 22.5469 9.15755 22.4375 9.15755 18.551C9.10797 15.2888 11.4486 12.111 16.1969 12.111C18.0301 12.111 18.9313 12.6375 18.9313 12.6375L17.5532 16.5969L17.524 16.6115ZM16.7365 1.33542C16.9348 1.33542 17.1317 1.39083 17.3271 1.53229C15.8921 2.21042 14.3171 3.9225 13.6696 7.35396C12.713 7.66458 11.784 7.94458 10.9148 8.19687C11.6717 5.59375 13.5005 1.35 16.7365 1.35V1.33542ZM18.5376 5.63604V5.83292C17.438 6.17125 16.229 6.53875 15.0463 6.90625C15.7259 4.31479 16.9903 3.04896 18.0869 2.57354C18.3684 3.30417 18.5376 4.28854 18.5376 5.63604ZM19.3236 2.37812C20.3357 2.48604 20.9876 3.6425 21.4076 4.9375C20.8986 5.10375 20.3357 5.27437 19.7188 5.47125V5.10375C19.7188 4.00708 19.5788 3.10438 19.3236 2.37521V2.37812ZM23.6869 4.25792C23.6578 4.25792 23.5994 4.28854 23.5732 4.28854C23.5469 4.28854 23.1517 4.39792 22.5319 4.59479C21.9151 2.79667 20.8169 1.13854 18.8744 1.13854H18.7067C18.1438 0.429792 17.4642 0.125 16.8751 0.125C12.3455 0.125 10.1813 5.77896 9.50318 8.65042C7.76193 9.18271 6.49464 9.57792 6.35318 9.63333C5.3688 9.94396 5.34109 9.97167 5.22734 10.9021C5.11797 11.5758 2.55859 31.4106 2.55859 31.4106L22.3351 35.125L23.6869 4.25792Z" fill="#16A34A"/>
</svg>
