<svg width="41" height="41" viewBox="0 0 41 41" fill="none" xmlns="http://www.w3.org/2000/svg">
<path d="M25.0911 4.26953H10.0911C9.20709 4.26953 8.35924 4.62072 7.73412 5.24584C7.109 5.87096 6.75781 6.71881 6.75781 7.60286V34.2695C6.75781 35.1536 7.109 36.0014 7.73412 36.6266C8.35924 37.2517 9.20709 37.6029 10.0911 37.6029H30.0911C30.9752 37.6029 31.823 37.2517 32.4482 36.6266C33.0733 36.0014 33.4245 35.1536 33.4245 34.2695V12.6029L25.0911 4.26953Z" stroke="#9333EA" stroke-width="3.33333" stroke-linecap="round" stroke-linejoin="round"/>
<path d="M23.4141 4.26953V10.9362C23.4141 11.8203 23.7653 12.6681 24.3904 13.2932C25.0155 13.9183 25.8633 14.2695 26.7474 14.2695H33.4141" stroke="#9333EA" stroke-width="3.33333" stroke-linecap="round" stroke-linejoin="round"/>
<path d="M16.7474 15.9375H13.4141" stroke="#9333EA" stroke-width="3.33333" stroke-linecap="round" stroke-linejoin="round"/>
<path d="M26.7474 22.6055H13.4141" stroke="#9333EA" stroke-width="3.33333" stroke-linecap="round" stroke-linejoin="round"/>
<path d="M26.7474 29.2695H13.4141" stroke="#9333EA" stroke-width="3.33333" stroke-linecap="round" stroke-linejoin="round"/>
</svg>
