<svg width="41" height="41" viewBox="0 0 41 41" fill="none" xmlns="http://www.w3.org/2000/svg">
<path d="M7.56298 23.9575C7.24758 23.9585 6.93836 23.8701 6.67123 23.7024C6.4041 23.5348 6.19003 23.2947 6.05389 23.0102C5.91775 22.7257 5.86513 22.4084 5.90214 22.0952C5.93915 21.782 6.06428 21.4857 6.26298 21.2408L22.763 4.2408C22.8867 4.09793 23.0554 4.00139 23.2413 3.96702C23.4271 3.93265 23.6192 3.96249 23.7859 4.05164C23.9525 4.14079 24.084 4.28396 24.1585 4.45765C24.2331 4.63133 24.2464 4.82521 24.1963 5.00747L20.9963 15.0408C20.902 15.2933 20.8703 15.565 20.904 15.8325C20.9377 16.1 21.0357 16.3553 21.1898 16.5765C21.3438 16.7978 21.5493 16.9783 21.7884 17.1027C22.0276 17.2271 22.2934 17.2917 22.563 17.2908H34.2296C34.545 17.2897 34.8543 17.3782 35.1214 17.5458C35.3885 17.7135 35.6026 17.9535 35.7387 18.238C35.8749 18.5225 35.9275 18.8398 35.8905 19.153C35.8535 19.4662 35.7283 19.7625 35.5296 20.0075L19.0296 37.0075C18.9059 37.1503 18.7372 37.2469 18.5513 37.2812C18.3655 37.3156 18.1734 37.2858 18.0068 37.1966C17.8401 37.1075 17.7087 36.9643 17.6341 36.7906C17.5595 36.6169 17.5462 36.4231 17.5963 36.2408L20.7963 26.2075C20.8907 25.9549 20.9224 25.6833 20.8887 25.4158C20.855 25.1483 20.7569 24.893 20.6028 24.6718C20.4488 24.4505 20.2434 24.2699 20.0042 24.1455C19.765 24.0211 19.4992 23.9566 19.2296 23.9575H7.56298Z" stroke="#E06C0E" stroke-width="2.5" stroke-linecap="round" stroke-linejoin="round"/>
</svg>
