<svg width="14" height="17" viewBox="0 0 14 17" fill="none" xmlns="http://www.w3.org/2000/svg">
<path d="M1.5 16.9219C1.08333 16.9219 0.729167 16.776 0.4375 16.4844C0.145834 16.1788 1.19209e-07 15.8247 1.19209e-07 15.4219V4.42187C1.19209e-07 4.0191 0.145834 3.67187 0.4375 3.38021C0.729167 3.07465 1.08333 2.92187 1.5 2.92187H3V1.67187C3 1.46354 3.06944 1.28993 3.20833 1.15104C3.36111 0.998263 3.54167 0.921874 3.75 0.921874C3.95833 0.921874 4.13194 0.998263 4.27083 1.15104C4.42361 1.28993 4.5 1.46354 4.5 1.67187V2.92187H9.5V1.67187C9.5 1.46354 9.56945 1.28993 9.70833 1.15104C9.86111 0.998263 10.0417 0.921874 10.25 0.921874C10.4583 0.921874 10.6319 0.998263 10.7708 1.15104C10.9236 1.28993 11 1.46354 11 1.67187V2.92187H12.5C12.9167 2.92187 13.2708 3.07465 13.5625 3.38021C13.8542 3.67187 14 4.0191 14 4.42187V15.4219C14 15.8247 13.8542 16.1788 13.5625 16.4844C13.2708 16.776 12.9167 16.9219 12.5 16.9219H1.5ZM1.5 15.4219H12.5V7.92187H1.5V15.4219ZM1.5 6.42187H12.5V4.42187H1.5V6.42187ZM1.5 6.42187V4.42187V6.42187ZM7 10.9219C6.79167 10.9219 6.61111 10.8524 6.45833 10.7135C6.31945 10.5608 6.25 10.3802 6.25 10.1719C6.25 9.96354 6.31945 9.78993 6.45833 9.65104C6.61111 9.49826 6.79167 9.42187 7 9.42187C7.20833 9.42187 7.38194 9.49826 7.52083 9.65104C7.67361 9.78993 7.75 9.96354 7.75 10.1719C7.75 10.3802 7.67361 10.5608 7.52083 10.7135C7.38194 10.8524 7.20833 10.9219 7 10.9219ZM3.75 10.9219C3.54167 10.9219 3.36111 10.8524 3.20833 10.7135C3.06944 10.5608 3 10.3802 3 10.1719C3 9.96354 3.06944 9.78993 3.20833 9.65104C3.36111 9.49826 3.54167 9.42187 3.75 9.42187C3.95833 9.42187 4.13194 9.49826 4.27083 9.65104C4.42361 9.78993 4.5 9.96354 4.5 10.1719C4.5 10.3802 4.42361 10.5608 4.27083 10.7135C4.13194 10.8524 3.95833 10.9219 3.75 10.9219ZM10.25 10.9219C10.0417 10.9219 9.86111 10.8524 9.70833 10.7135C9.56945 10.5608 9.5 10.3802 9.5 10.1719C9.5 9.96354 9.56945 9.78993 9.70833 9.65104C9.86111 9.49826 10.0417 9.42187 10.25 9.42187C10.4583 9.42187 10.6319 9.49826 10.7708 9.65104C10.9236 9.78993 11 9.96354 11 10.1719C11 10.3802 10.9236 10.5608 10.7708 10.7135C10.6319 10.8524 10.4583 10.9219 10.25 10.9219ZM7 13.9219C6.79167 13.9219 6.61111 13.8524 6.45833 13.7135C6.31945 13.5608 6.25 13.3802 6.25 13.1719C6.25 12.9635 6.31945 12.7899 6.45833 12.651C6.61111 12.4983 6.79167 12.4219 7 12.4219C7.20833 12.4219 7.38194 12.4983 7.52083 12.651C7.67361 12.7899 7.75 12.9635 7.75 13.1719C7.75 13.3802 7.67361 13.5608 7.52083 13.7135C7.38194 13.8524 7.20833 13.9219 7 13.9219ZM3.75 13.9219C3.54167 13.9219 3.36111 13.8524 3.20833 13.7135C3.06944 13.5608 3 13.3802 3 13.1719C3 12.9635 3.06944 12.7899 3.20833 12.651C3.36111 12.4983 3.54167 12.4219 3.75 12.4219C3.95833 12.4219 4.13194 12.4983 4.27083 12.651C4.42361 12.7899 4.5 12.9635 4.5 13.1719C4.5 13.3802 4.42361 13.5608 4.27083 13.7135C4.13194 13.8524 3.95833 13.9219 3.75 13.9219ZM10.25 13.9219C10.0417 13.9219 9.86111 13.8524 9.70833 13.7135C9.56945 13.5608 9.5 13.3802 9.5 13.1719C9.5 12.9635 9.56945 12.7899 9.70833 12.651C9.86111 12.4983 10.0417 12.4219 10.25 12.4219C10.4583 12.4219 10.6319 12.4983 10.7708 12.651C10.9236 12.7899 11 12.9635 11 13.1719C11 13.3802 10.9236 13.5608 10.7708 13.7135C10.6319 13.8524 10.4583 13.9219 10.25 13.9219Z" fill="#5F6572"/>
</svg>
