<svg width="16" height="17" viewBox="0 0 16 17" fill="none" xmlns="http://www.w3.org/2000/svg">
<path d="M8.75 8.29688V4.67187C8.75 4.46354 8.67361 4.28993 8.52083 4.15104C8.38194 3.99826 8.20833 3.92187 8 3.92187C7.79167 3.92187 7.61111 3.99826 7.45833 4.15104C7.31945 4.28993 7.25 4.46354 7.25 4.67187V8.60938C7.25 8.72049 7.27083 8.82465 7.3125 8.92188C7.35417 9.00521 7.40972 9.0816 7.47917 9.15104L10.2708 11.9427C10.4236 12.0955 10.5972 12.1719 10.7917 12.1719C11 12.158 11.1806 12.0747 11.3333 11.9219C11.4861 11.7691 11.5625 11.5955 11.5625 11.401C11.5625 11.1927 11.4861 11.0122 11.3333 10.8594L8.75 8.29688ZM8 16.9219C6.90278 16.9219 5.86806 16.7135 4.89583 16.2969C3.92361 15.8802 3.06944 15.3108 2.33333 14.5885C1.61111 13.8524 1.04167 12.9983 0.625 12.026C0.208334 11.0538 1.78814e-07 10.0191 1.78814e-07 8.92188C1.78814e-07 7.81076 0.208334 6.7691 0.625 5.79687C1.04167 4.82465 1.61111 3.97743 2.33333 3.25521C3.06944 2.53299 3.92361 1.96354 4.89583 1.54687C5.86806 1.13021 6.90278 0.921874 8 0.921874C9.11111 0.921874 10.1528 1.13021 11.125 1.54687C12.0972 1.96354 12.9444 2.53299 13.6667 3.25521C14.3889 3.97743 14.9583 4.82465 15.375 5.79687C15.7917 6.7691 16 7.81076 16 8.92188C16 10.0191 15.7917 11.0538 15.375 12.026C14.9583 12.9983 14.3889 13.8524 13.6667 14.5885C12.9444 15.3108 12.0972 15.8802 11.125 16.2969C10.1528 16.7135 9.11111 16.9219 8 16.9219ZM8 15.4219C9.80556 15.4219 11.3403 14.7899 12.6042 13.526C13.8681 12.2483 14.5 10.7135 14.5 8.92188C14.5 7.11632 13.8681 5.5816 12.6042 4.31771C11.3403 3.05382 9.80556 2.42187 8 2.42187C6.20833 2.42187 4.67361 3.05382 3.39583 4.31771C2.13194 5.5816 1.5 7.11632 1.5 8.92188C1.5 10.7135 2.13194 12.2483 3.39583 13.526C4.67361 14.7899 6.20833 15.4219 8 15.4219Z" fill="#5F6572"/>
</svg>
