<svg width="65" height="65" viewBox="0 0 65 65" fill="none" xmlns="http://www.w3.org/2000/svg">
<rect x="0.300781" y="0.929688" width="64" height="64" rx="8" fill="url(#paint0_linear_354_1813)"/>
<path d="M26.6341 46.2604C27.3705 46.2604 27.9674 45.6635 27.9674 44.9271C27.9674 44.1907 27.3705 43.5938 26.6341 43.5938C25.8977 43.5938 25.3008 44.1907 25.3008 44.9271C25.3008 45.6635 25.8977 46.2604 26.6341 46.2604Z" stroke="white" stroke-width="2.66667" stroke-linecap="round" stroke-linejoin="round"/>
<path d="M41.3021 46.2643C42.0385 46.2643 42.6354 45.6674 42.6354 44.931C42.6354 44.1946 42.0385 43.5977 41.3021 43.5977C40.5657 43.5977 39.9688 44.1946 39.9688 44.931C39.9688 45.6674 40.5657 46.2643 41.3021 46.2643Z" stroke="white" stroke-width="2.66667" stroke-linecap="round" stroke-linejoin="round"/>
<path d="M18.7031 19.6641H21.3698L24.9165 36.2241C25.0466 36.8305 25.384 37.3727 25.8707 37.7572C26.3575 38.1417 26.963 38.3445 27.5831 38.3307H40.6231C41.23 38.3297 41.8184 38.1218 42.2912 37.7412C42.7639 37.3606 43.0926 36.8301 43.2231 36.2374L45.4231 26.3307H22.7965" stroke="white" stroke-width="2.66667" stroke-linecap="round" stroke-linejoin="round"/>
<defs>
<linearGradient id="paint0_linear_354_1813" x1="0.300781" y1="0.929688" x2="64.3008" y2="64.9297" gradientUnits="userSpaceOnUse">
<stop stop-color="#98B969"/>
<stop offset="1" stop-color="#4C98CB"/>
</linearGradient>
</defs>
</svg>
