<svg width="65" height="65" viewBox="0 0 65 65" fill="none" xmlns="http://www.w3.org/2000/svg">
<rect x="0.566406" y="0.648438" width="64" height="64" rx="8" fill="url(#paint0_linear_354_1829)"/>
<path d="M36.5664 44.6484V33.9818C36.5664 33.6281 36.4259 33.289 36.1759 33.039C35.9258 32.7889 35.5867 32.6484 35.2331 32.6484H29.8997C29.5461 32.6484 29.207 32.7889 28.9569 33.039C28.7069 33.289 28.5664 33.6281 28.5664 33.9818V44.6484" stroke="white" stroke-width="2" stroke-linecap="round" stroke-linejoin="round"/>
<path d="M20.5703 29.9824C20.5702 29.5945 20.6548 29.2112 20.818 28.8593C20.9813 28.5075 21.2194 28.1954 21.5156 27.945L30.849 19.9464C31.3303 19.5396 31.9401 19.3164 32.5703 19.3164C33.2005 19.3164 33.8103 19.5396 34.2916 19.9464L43.625 27.945C43.9213 28.1954 44.1593 28.5075 44.3226 28.8593C44.4859 29.2112 44.5704 29.5945 44.5703 29.9824V41.9824C44.5703 42.6896 44.2894 43.3679 43.7893 43.868C43.2892 44.3681 42.6109 44.649 41.9036 44.649H23.237C22.5297 44.649 21.8515 44.3681 21.3514 43.868C20.8513 43.3679 20.5703 42.6896 20.5703 41.9824V29.9824Z" stroke="white" stroke-width="2" stroke-linecap="round" stroke-linejoin="round"/>
<defs>
<linearGradient id="paint0_linear_354_1829" x1="0.566406" y1="0.648438" x2="64.5664" y2="64.6484" gradientUnits="userSpaceOnUse">
<stop stop-color="#DE5EA3"/>
<stop offset="1" stop-color="#D48651"/>
</linearGradient>
</defs>
</svg>
