<svg width="40" height="41" viewBox="0 0 40 41" fill="none" xmlns="http://www.w3.org/2000/svg">
<path d="M20.7961 18.2195V23.6862H33.8628C33.4628 26.7529 32.4411 28.9979 30.8845 30.5745C28.9728 32.4862 25.9961 34.5745 20.7961 34.5745C12.7511 34.5745 6.46281 28.0862 6.46281 20.0412C6.46281 11.9962 12.7511 5.50786 20.7961 5.50786C25.1295 5.50786 28.3078 7.21953 30.6411 9.41953L34.4861 5.57453C31.2411 2.41953 26.8845 0.0195312 20.7961 0.0195312C9.77448 0.0195312 0.507812 8.99786 0.507812 20.0195C0.507812 31.0412 9.77448 40.0195 20.7961 40.0195C26.7511 40.0195 31.2411 38.0645 34.7511 34.4195C38.3511 30.8195 39.4845 25.7312 39.4845 21.6412C39.4845 20.3745 39.3961 19.1962 39.1961 18.2195H20.7961Z" fill="#EF4444"/>
</svg>
