<svg width="41" height="41" viewBox="0 0 41 41" fill="none" xmlns="http://www.w3.org/2000/svg">
<path d="M6.75048 24.2778C6.43508 24.2789 6.12586 24.1904 5.85873 24.0227C5.5916 23.8551 5.37753 23.615 5.24139 23.3305C5.10525 23.046 5.05263 22.7288 5.08964 22.4155C5.12665 22.1023 5.25178 21.806 5.45048 21.5611L21.9505 4.56111C22.0742 4.41825 22.2429 4.32171 22.4288 4.28733C22.6146 4.25296 22.8067 4.2828 22.9734 4.37195C23.14 4.4611 23.2715 4.60427 23.346 4.77796C23.4206 4.95164 23.4339 5.14553 23.3838 5.32778L20.1838 15.3611C20.0895 15.6137 20.0578 15.8853 20.0915 16.1528C20.1252 16.4203 20.2232 16.6756 20.3773 16.8968C20.5313 17.1181 20.7368 17.2986 20.9759 17.423C21.2151 17.5475 21.4809 17.612 21.7505 17.6111H33.4171C33.7325 17.61 34.0418 17.6985 34.3089 17.8661C34.576 18.0338 34.7901 18.2739 34.9262 18.5583C35.0624 18.8428 35.115 19.1601 35.078 19.4733C35.041 19.7866 34.9158 20.0828 34.7171 20.3278L18.2171 37.3278C18.0934 37.4706 17.9247 37.5672 17.7388 37.6016C17.553 37.6359 17.3609 37.6061 17.1943 37.5169C17.0276 37.4278 16.8962 37.2846 16.8216 37.1109C16.747 36.9372 16.7337 36.7434 16.7838 36.5611L19.9838 26.5278C20.0782 26.2752 20.1099 26.0036 20.0762 25.7361C20.0425 25.4686 19.9444 25.2133 19.7903 24.9921C19.6363 24.7708 19.4309 24.5903 19.1917 24.4658C18.9525 24.3414 18.6867 24.2769 18.4171 24.2778H6.75048Z" stroke="#E06C0E" stroke-width="2.5" stroke-linecap="round" stroke-linejoin="round"/>
</svg>
