<svg width="41" height="41" viewBox="0 0 41 41" fill="none" xmlns="http://www.w3.org/2000/svg">
<path d="M25.9427 3.95703H10.9427C10.0587 3.95703 9.21081 4.30822 8.58569 4.93334C7.96056 5.55846 7.60938 6.40631 7.60938 7.29036V33.957C7.60938 34.8411 7.96056 35.6889 8.58569 36.3141C9.21081 36.9392 10.0587 37.2904 10.9427 37.2904H30.9427C31.8268 37.2904 32.6746 36.9392 33.2997 36.3141C33.9249 35.6889 34.276 34.8411 34.276 33.957V12.2904L25.9427 3.95703Z" stroke="#9333EA" stroke-width="3.33333" stroke-linecap="round" stroke-linejoin="round"/>
<path d="M24.2734 3.95703V10.6237C24.2734 11.5078 24.6246 12.3556 25.2497 12.9807C25.8749 13.6058 26.7227 13.957 27.6068 13.957H34.2734" stroke="#9333EA" stroke-width="3.33333" stroke-linecap="round" stroke-linejoin="round"/>
<path d="M17.6068 15.625H14.2734" stroke="#9333EA" stroke-width="3.33333" stroke-linecap="round" stroke-linejoin="round"/>
<path d="M27.6068 22.293H14.2734" stroke="#9333EA" stroke-width="3.33333" stroke-linecap="round" stroke-linejoin="round"/>
<path d="M27.6068 28.957H14.2734" stroke="#9333EA" stroke-width="3.33333" stroke-linecap="round" stroke-linejoin="round"/>
</svg>
