<svg width="41" height="41" viewBox="0 0 41 41" fill="none" xmlns="http://www.w3.org/2000/svg">
<path d="M21.8906 20.9922L32.5806 31.6822" stroke="#A855F7" stroke-width="3.33333" stroke-linecap="round" stroke-linejoin="round"/>
<path d="M7.06408 5.07673C6.91231 5.01277 6.74492 4.99551 6.58329 5.02714C6.42166 5.05878 6.27313 5.13788 6.15668 5.25433C6.04022 5.37079 5.96112 5.51932 5.92949 5.68095C5.89785 5.84257 5.91512 6.00996 5.97908 6.16173L16.8124 32.8267C16.8791 32.9881 16.9947 33.1244 17.1429 33.2167C17.2911 33.3089 17.4644 33.3524 17.6386 33.341C17.8128 33.3295 17.979 33.2638 18.1139 33.1531C18.2489 33.0423 18.3457 32.892 18.3907 32.7234L21.0057 22.5851C21.1449 21.9932 21.4434 21.4506 21.8687 21.0161C22.2941 20.5816 22.8302 20.2717 23.4191 20.1201L33.6257 17.4884C33.7952 17.4444 33.9465 17.3481 34.0582 17.2133C34.1698 17.0784 34.2362 16.9118 34.2478 16.7371C34.2594 16.5624 34.2157 16.3885 34.1229 16.24C34.0301 16.0916 33.8929 15.9761 33.7307 15.9101L7.06408 5.07673Z" stroke="#A855F7" stroke-width="3.33333" stroke-linecap="round" stroke-linejoin="round"/>
</svg>
